<?xml version="1.0" encoding="utf-8"?>
<!-- Generator: Adobe Illustrator 26.3.1, SVG Export Plug-In . SVG Version: 6.00 Build 0)  -->
<svg version="1.1" id="logo" xmlns="http://www.w3.org/2000/svg" xmlns:xlink="http://www.w3.org/1999/xlink" x="0px" y="0px"
	 viewBox="0 0 53.3 20" style="enable-background:new 0 0 53.3 20;" xml:space="preserve">
<path id="Path_3" d="M22.1,14.2c3.9,0,6.2-2.2,6.2-6.1V0.8h-3.7V8c0,2.3-0.9,3.2-2.5,3.2s-2.5-0.9-2.5-3.2V0.8h-3.7v7.3
	C15.9,12,18.2,14.2,22.1,14.2z M36.8,14.2c3.9,0,6.2-2.2,6.2-6.1V0.8h-3.7V8c0,2.3-0.9,3.2-2.5,3.2s-2.5-0.9-2.5-3.2V0.8h-3.7v7.3
	C30.6,12,32.9,14.2,36.8,14.2z M48.2,14.2c3.3,0,5.1-1.7,5.1-5.1V0.8H45v2.9h4.6v5.7c0,1.3-0.6,1.9-1.7,1.9
	c-0.9-0.1-1.8-0.6-2.3-1.4l-2,2.4C44.8,13.6,46.5,14.3,48.2,14.2z"/>
<g id="danger-svgrepo-com" transform="translate(0 0)">
	<path id="Path_8" d="M0,14.2h13.8L6.9,0.8L0,14.2z M2.4,12.8L7,4l4.6,8.8H2.4z"/>
	<rect id="Rectangle_1" x="6.4" y="10.9" width="1.1" height="1.2"/>
	<rect id="Rectangle_2" x="6.4" y="6.4" width="1.1" height="3.6"/>
</g>
<g>
	<path d="M0.9,18.5l0.3-0.6c0.3,0.2,0.7,0.4,1.2,0.4c0.5,0,0.7-0.2,0.7-0.4c0-0.7-2-0.2-2-1.5c0-0.6,0.5-1.1,1.5-1.1
		c0.4,0,0.9,0.1,1.2,0.3l-0.3,0.6C3.1,16,2.7,16,2.4,16c-0.5,0-0.7,0.2-0.7,0.4c0,0.6,2,0.2,2,1.5c0,0.6-0.5,1.1-1.5,1.1
		C1.8,18.9,1.2,18.8,0.9,18.5z"/>
	<path d="M7.4,18.2v0.7H4.7v-3.5h2.6V16H5.5v0.8h1.6v0.6H5.5v0.8H7.4z"/>
	<path d="M10.6,18.9l-0.7-1h0H9.2v1H8.4v-3.5h1.5c0.9,0,1.5,0.5,1.5,1.3c0,0.5-0.3,0.9-0.7,1.1l0.8,1.1H10.6z M9.9,16H9.2v1.2h0.7
		c0.5,0,0.7-0.2,0.7-0.6C10.6,16.2,10.4,16,9.9,16z"/>
	<path d="M17.7,15.4l-1.1,3.5h-0.9l-0.8-2.4l-0.8,2.4h-0.9l-1.2-3.5H13l0.8,2.5l0.8-2.5h0.8l0.8,2.5l0.8-2.5H17.7z"/>
	<path d="M18.5,15.4h0.8v3.5h-0.8V15.4z"/>
	<path d="M20.2,18.5l0.3-0.6c0.3,0.2,0.7,0.4,1.2,0.4c0.5,0,0.7-0.2,0.7-0.4c0-0.7-2-0.2-2-1.5c0-0.6,0.5-1.1,1.5-1.1
		c0.4,0,0.9,0.1,1.2,0.3l-0.2,0.6c-0.3-0.2-0.7-0.3-1-0.3c-0.5,0-0.7,0.2-0.7,0.4c0,0.6,2,0.2,2,1.5c0,0.6-0.5,1.1-1.5,1.1
		C21.1,18.9,20.5,18.8,20.2,18.5z"/>
	<path d="M29,18.9l0-2.1l-1,1.7h-0.4l-1-1.7v2.1h-0.8v-3.5h0.7l1.3,2.2l1.3-2.2h0.7l0,3.5H29z"/>
	<path d="M30.7,17.1c0-1,0.8-1.8,1.9-1.8c1.1,0,1.9,0.8,1.9,1.8s-0.8,1.8-1.9,1.8C31.5,18.9,30.7,18.2,30.7,17.1z M33.7,17.1
		c0-0.7-0.5-1.1-1.1-1.1c-0.6,0-1.1,0.5-1.1,1.1c0,0.7,0.5,1.1,1.1,1.1C33.3,18.2,33.7,17.8,33.7,17.1z"/>
	<path d="M38.7,17.9c0,0.6-0.5,1-1.4,1h-1.8v-3.5h1.7c0.9,0,1.3,0.4,1.3,0.9c0,0.4-0.2,0.6-0.5,0.8C38.5,17.2,38.7,17.5,38.7,17.9z
		 M36.3,16v0.8h0.8c0.4,0,0.6-0.1,0.6-0.4S37.5,16,37.1,16H36.3z M37.9,17.8c0-0.3-0.2-0.4-0.6-0.4h-0.9v0.9h0.9
		C37.7,18.3,37.9,18.1,37.9,17.8z"/>
	<path d="M39.7,15.4h0.8v3.5h-0.8V15.4z"/>
	<path d="M41.7,15.4h0.8v2.8h1.8v0.7h-2.6V15.4z"/>
	<path d="M48.3,15.4v3.5h-0.7l-1.7-2.1v2.1H45v-3.5h0.7l1.7,2.1v-2.1H48.3z"/>
	<path d="M51.1,17.6v1.2h-0.8v-1.3L49,15.4h0.9l0.9,1.6l0.9-1.6h0.8L51.1,17.6z"/>
</g>
</svg>
