<?xml version="1.0" encoding="utf-8"?>
<!-- Generator: Adobe Illustrator 26.3.1, SVG Export Plug-In . SVG Version: 6.00 Build 0)  -->
<svg version="1.1" id="logo" xmlns="http://www.w3.org/2000/svg" xmlns:xlink="http://www.w3.org/1999/xlink" x="0px" y="0px"
	 viewBox="0 0 53.3 20" style="enable-background:new 0 0 53.3 20;" xml:space="preserve">
<path id="Path_3" d="M22.1,13.4c3.9,0,6.2-2.2,6.2-6.1V0h-3.7v7.2c0,2.3-0.9,3.2-2.5,3.2c-1.6,0-2.5-0.9-2.5-3.2V0h-3.7v7.3
	C15.9,11.2,18.2,13.4,22.1,13.4z M36.8,13.4c3.9,0,6.2-2.2,6.2-6.1V0h-3.7v7.2c0,2.3-0.9,3.2-2.5,3.2c-1.6,0-2.5-0.9-2.5-3.2V0h-3.7
	v7.3C30.6,11.2,32.9,13.4,36.8,13.4z M48.2,13.4c3.3,0,5.1-1.7,5.1-5.1V0h-8.3v2.9h4.6v5.7c0,1.3-0.6,1.9-1.7,1.9
	c-0.9-0.1-1.8-0.6-2.3-1.4l-2,2.4C44.8,12.8,46.5,13.5,48.2,13.4z"/>
<path id="Path_4" d="M1.5,15.9H0v4h0.7v-1.2h0.8c0.8,0.1,1.5-0.4,1.6-1.2c0-0.1,0-0.2,0-0.2c0-0.8-0.6-1.4-1.4-1.4
	C1.7,15.9,1.6,15.9,1.5,15.9z M1.5,18.1H0.7v-1.6h0.8c0.6,0,0.9,0.3,0.9,0.8S2.1,18.1,1.5,18.1z M5.6,20c1.1,0,2-0.9,2-2
	c0,0,0-0.1,0-0.1c0.1-1.1-0.8-2-1.9-2.1c0,0-0.1,0-0.1,0c-1.1,0-2,0.9-2,2c0,0,0,0.1,0,0.1c0,1.1,0.8,2,1.9,2.1
	C5.5,20,5.5,20,5.6,20z M5.6,19.3c-0.7,0-1.3-0.6-1.3-1.3c0,0,0-0.1,0-0.1c-0.1-0.7,0.5-1.4,1.2-1.4c0,0,0.1,0,0.1,0
	c0.7,0,1.3,0.6,1.3,1.3c0,0,0,0.1,0,0.1C6.9,18.7,6.4,19.3,5.6,19.3C5.6,19.3,5.6,19.3,5.6,19.3L5.6,19.3z M12.3,19.9l0-4h-0.6
	l-1.5,2.7l-1.5-2.7H8.3v4h0.7v-2.6l1.2,2.2h0.3l1.2-2.2l0,2.7L12.3,19.9z M15,20c1.1,0,2-0.9,2-2c0,0,0-0.1,0-0.1
	c0.1-1.1-0.8-2-1.9-2.1c0,0-0.1,0-0.1,0c-1.1,0-2,0.9-2,2c0,0,0,0.1,0,0.1c0,1.1,0.8,2,1.9,2.1C15,20,15,20,15,20L15,20z M15,19.3
	c-0.7,0-1.3-0.6-1.3-1.3c0,0,0-0.1,0-0.1c-0.1-0.7,0.5-1.4,1.2-1.4c0,0,0.1,0,0.1,0c0.7,0,1.3,0.6,1.3,1.3c0,0,0,0.1,0,0.1
	C16.4,18.7,15.9,19.3,15,19.3C15.1,19.3,15.1,19.3,15,19.3L15,19.3z M19.5,20c0.6,0,1.1-0.2,1.5-0.7l-0.4-0.5
	c-0.2,0.3-0.6,0.5-1,0.5c-0.7,0-1.3-0.6-1.3-1.3c0,0,0-0.1,0-0.1c-0.1-0.7,0.5-1.4,1.2-1.4c0,0,0.1,0,0.1,0c0.4,0,0.8,0.2,1,0.5
	l0.4-0.5c-0.4-0.4-0.9-0.7-1.5-0.7c-1.1,0-2,0.9-2,2c0,0,0,0.1,0,0.1c-0.1,1.1,0.8,2,1.9,2.1C19.4,20,19.4,20,19.5,20L19.5,20z
	 M23,19.9h1.6c1.1,0.1,2-0.7,2-1.8c0-0.1,0-0.1,0-0.2c0.1-1.1-0.8-2-1.8-2c-0.1,0-0.1,0-0.2,0H23L23,19.9z M23.7,19.3v-2.8h0.9
	c0.7,0,1.3,0.5,1.4,1.2c0,0.1,0,0.1,0,0.2c0.1,0.7-0.5,1.3-1.2,1.4c-0.1,0-0.1,0-0.2,0L23.7,19.3z M30.5,19.9l-0.9-1.3
	c0.5-0.2,0.8-0.7,0.8-1.3c0-0.8-0.6-1.4-1.4-1.4c-0.1,0-0.2,0-0.2,0h-1.5v4H28v-1.2h0.8c0,0,0.1,0,0.1,0l0.8,1.2L30.5,19.9z
	 M29.7,17.3c0,0.5-0.3,0.8-0.9,0.8H28v-1.6h0.8C29.4,16.5,29.7,16.8,29.7,17.3L29.7,17.3z M32.9,20c1.1,0,2-0.9,2-2c0,0,0-0.1,0-0.1
	c0.1-1.1-0.8-2-1.9-2.1c0,0-0.1,0-0.1,0c-1.1,0-2,0.9-2,2c0,0,0,0.1,0,0.1c0,1.1,0.8,2,1.9,2.1C32.8,20,32.9,20,32.9,20L32.9,20z
	 M32.9,19.3c-0.7,0-1.3-0.6-1.3-1.3c0,0,0-0.1,0-0.1c-0.1-0.7,0.5-1.4,1.2-1.4c0,0,0.1,0,0.1,0c0.7,0,1.3,0.6,1.3,1.3
	c0,0,0,0.1,0,0.1C34.3,18.7,33.7,19.3,32.9,19.3C33,19.3,32.9,19.3,32.9,19.3L32.9,19.3z M38.1,19.1c-0.2,0.1-0.5,0.2-0.8,0.2
	c-0.7,0-1.3-0.6-1.4-1.3c0,0,0-0.1,0-0.1c0-0.7,0.5-1.4,1.2-1.4c0,0,0.1,0,0.1,0c0.4,0,0.8,0.2,1,0.5l0.4-0.5
	c-0.4-0.4-0.9-0.7-1.5-0.7c-1.1,0-2,0.8-2,1.9c0,0,0,0.1,0,0.1c-0.1,1.1,0.8,2,1.9,2.1c0,0,0.1,0,0.1,0c0.5,0,1.1-0.2,1.5-0.5v-1.6
	h-0.7L38.1,19.1z M41.4,20c1.1,0,2-0.9,2-2c0,0,0-0.1,0-0.1c0.1-1.1-0.8-2-1.9-2.1c0,0-0.1,0-0.1,0c-1.1,0-2,0.9-2,2
	c0,0,0,0.1,0,0.1c0,1.1,0.8,2,1.9,2.1C41.3,20,41.4,20,41.4,20L41.4,20z M41.4,19.3c-0.7,0-1.3-0.6-1.3-1.3c0,0,0-0.1,0-0.1
	c-0.1-0.7,0.5-1.4,1.2-1.4c0,0,0.1,0,0.1,0c0.7,0,1.3,0.6,1.3,1.3c0,0,0,0.1,0,0.1C42.8,18.7,42.2,19.3,41.4,19.3
	C41.5,19.3,41.4,19.3,41.4,19.3L41.4,19.3z M48.8,15.9l-1,3.1l-0.9-3.1h-0.6l-1,3.1l-0.9-3.1h-0.7l1.2,4h0.7l0.9-3l0.9,3h0.7l1.2-4
	L48.8,15.9z M52.6,19.9h0.7l-1.7-4H51l-1.7,4H50l0.4-0.9h1.9L52.6,19.9z M50.6,18.4l0.7-1.8l0.7,1.8H50.6z"/>
<g id="danger-svgrepo-com" transform="translate(0 0)">
	<path id="Path_8" d="M0,13.4h13.8L6.9,0L0,13.4z M2.4,12l4.6-8.8l4.6,8.8H2.4z"/>
	<rect id="Rectangle_1" x="6.4" y="10.1" width="1.1" height="1.2"/>
	<rect id="Rectangle_2" x="6.4" y="5.6" width="1.1" height="3.6"/>
</g>
</svg>
