<?xml version="1.0" encoding="utf-8"?>
<!-- Generator: Adobe Illustrator 26.3.1, SVG Export Plug-In . SVG Version: 6.00 Build 0)  -->
<svg version="1.1" id="Layer_1" xmlns="http://www.w3.org/2000/svg" xmlns:xlink="http://www.w3.org/1999/xlink" x="0px" y="0px"
	 viewBox="0 0 10 10" style="enable-background:new 0 0 10 10;" xml:space="preserve">
<g id="search-svgrepo-com" transform="translate(0 -0.2)">
	<g id="Group_1" transform="translate(0 0.2)">
		<path id="Path_9" d="M9.9,9.3L7,6.4c0.6-0.7,0.9-1.6,0.9-2.5c0-2.2-1.8-3.9-4-3.9C1.8,0.1,0,1.8,0,3.9c0,2.2,1.8,3.9,4,3.9
			c0.9,0,1.7-0.3,2.4-0.8l2.9,2.9c0.2,0.2,0.4,0.2,0.6,0S10,9.4,9.9,9.3L9.9,9.3z M0.8,3.9c0-1.7,1.5-3.1,3.2-3.1
			c1.7,0,3,1.4,3.1,3.1C7,5.6,5.6,7,3.9,7C2.2,7,0.9,5.6,0.8,3.9z"/>
	</g>
</g>
</svg>
