<?xml version="1.0" encoding="utf-8"?>
<!-- Generator: Adobe Illustrator 26.3.1, SVG Export Plug-In . SVG Version: 6.00 Build 0)  -->
<svg version="1.1" id="Layer_1" xmlns="http://www.w3.org/2000/svg" xmlns:xlink="http://www.w3.org/1999/xlink" x="0px" y="0px"
	 viewBox="0 0 34.5 33" style="enable-background:new 0 0 34.5 33;" xml:space="preserve">
<style type="text/css">
	.st0{fill:#FFCC01;stroke:#000000;stroke-width:3;}
</style>
<path id="star-svgrepo-com" class="st0" d="M33,12.9c-0.1-0.2-0.2-0.4-0.5-0.4l-10.2-1.5l-4.6-9.2c-0.1-0.3-0.5-0.4-0.8-0.3
	c-0.1,0.1-0.2,0.1-0.3,0.3l-4.6,9.2L2,12.5c-0.3,0-0.5,0.3-0.5,0.6c0,0.1,0.1,0.2,0.2,0.3l7.4,7.2L7.3,30.8c0,0.2,0.1,0.4,0.2,0.6
	c0.2,0.1,0.4,0.1,0.6,0l9.1-4.8l9.1,4.8c0.3,0.1,0.6,0,0.8-0.2c0.1-0.1,0.1-0.2,0.1-0.4l-1.7-10.2l7.4-7.2C33,13.3,33,13.1,33,12.9z
	"/>
</svg>
